<svg xmlns="http://www.w3.org/2000/svg" viewBox="0 0 384 512" role="img" aria-label="Apple">
  <path d="M318.7 268.7c-.2-36.7 16.4-64.2 50.9-85.2-19.3-27.6-48.6-42.7-87.4-45.7-36.7-2.9-76.8 21.5-91.5 21.5-15.6 0-51.1-20.5-79.1-20.5C53.7 140.2 0 184.1 0 271.4c0 25.8 4.7 52.5 14.1 80.3 12.5 36.7 57.5 126.7 104.5 125.2 24.6-.6 42-17.5 74-17.5 31 0 47.1 17.5 74.6 17.5 47.4-.7 88.1-82.5 99.9-119.3-51.8-24.4-48.4-86-48.4-88.9zM258.8 96.2c28.2-33.5 25.6-64 24.8-75.1-24.8 1.5-53.5 16.9-69.8 35.8-18 20.4-28.6 45.7-26.3 74.2 26.8 2.1 53.2-11.6 71.3-34.9z"/>
</svg>
